<?xml version="1.0" encoding="UTF-8"?> <!-- Generator: Adobe Illustrator 19.0.0, SVG Export Plug-In . SVG Version: 6.00 Build 0) --> <svg xmlns="http://www.w3.org/2000/svg" xmlns:xlink="http://www.w3.org/1999/xlink" id="Layer_1" x="0px" y="0px" viewBox="0 0 208.4 51.9" xml:space="preserve"> <path id="XMLID_156_" d="M61.9,16.7H55l-6.7,16.3c-0.1,0.2,0.1-0.2-0.2,0.4c-0.3,0.6-1.4,1.7-2.1,2c-0.7,0.4-1.3,0.5-1.9,0.5 c-0.5,0-0.9-0.2-1.2-0.5c-0.3-0.4-0.3-0.9,0-1.6c0.5-1.3,1.1-2.6,1.6-3.9c0.5-1.1,0.9-2.2,1.3-3.2c0.4-1.1,0.8-1.9,1-2.5 c1.2-2.7,1.5-4.8,0.9-6.1c-0.6-1.3-2-2-4.4-2c-0.5,0-0.9,0-1.3,0.1c-0.4,0-0.8,0.1-1.1,0.2c-0.4,0.1-0.7,0.2-1.1,0.2l0.1,2l-0.2,0.5 c1,0,1.1,0.3,1.3,0.9c0.2,0.5,0.2,1.2-0.2,2c-0.2,0.5-0.5,1.2-0.9,2.2c-0.4,1-0.8,2.1-1.3,3.2c-0.5,1.1-0.9,2.2-1.3,3.2 c-0.4,1-0.8,1.8-1,2.3c-0.5,1.3-0.8,2.4-0.9,3.4c0,1,0.1,1.8,0.5,2.5c0.4,0.7,0.9,1.2,1.6,1.5c0.7,0.3,1.6,0.5,2.6,0.5 c1.2,0,2.5-0.3,3.8-0.9c1.3-0.6,2.5-1.4,3.5-2.4c0.2,1.1,0.7,1.9,1.5,2.4c0.8,0.5,1.8,0.8,3.1,0.8c1,0,2-0.2,3-0.6 c1-0.4,2-0.9,2.9-1.5c0.9-0.6,1.7-1.4,2.4-2.2c0.7-0.8,1.1-1.4,1.5-2.3l-1.3-2c-0.5,1.1-0.8,1.8-1.6,2.4c-0.8,0.6-1.6,1-2.3,1.1 c-0.7,0.1-1.3,0-1.7-0.3s-0.5-0.9-0.1-1.7L61.9,16.7z"></path> <path id="XMLID_152_" d="M94.7,40.5c0.9-0.3,1.8-0.8,2.7-1.3c-0.4,1.1-0.9,2.2-1.5,3.4c-0.6,1.1-1.3,2.2-2,3.1 c-0.7,0.9-1.5,1.6-2.3,2.2c-0.8,0.6-1.6,0.8-2.4,0.8c-0.8,0-1.5-0.3-2-0.9c-0.5-0.6-0.7-1.4-0.5-2.5c0.3-1.2,0.7-2.2,1.2-3 s1-1.4,1.6-1.8c0.4,0.1,0.8,0.2,1.2,0.3c0.4,0.1,0.9,0.1,1.4,0.1C93,41,93.8,40.8,94.7,40.5 M93.3,36.4c-0.3-0.5-0.4-1.1-0.4-1.9 c0-0.8,0.2-1.7,0.6-2.8c0.4-1.1,0.8-2.2,1.5-3.4c0.8-1.6,1.5-3,2.2-4.1c0.7-1.1,1.4-2,2.1-2.7c0.7-0.7,1.4-1.2,2.1-1.5 c0.7-0.3,1.4-0.5,2.1-0.5s1.3,0.2,1.7,0.7l-6.1,14.8c-0.7,0.6-1.5,1-2.2,1.4c-0.7,0.4-1.4,0.5-2,0.5C94.1,37.1,93.6,36.8,93.3,36.4 M113.5,16.8h-6.8l-0.4,1.1c-0.8-1.1-2-1.6-3.5-1.6c-2.9,0-5.6,1-8.3,3c-2.7,2-4.9,5.1-6.7,9.3c-0.9,2.2-1.4,4.3-1.4,6.1 c0,1.8,0.4,3.3,1.3,4.4c-0.7,0.7-1.4,1.5-2,2.5c-0.6,1.1-1,2.3-1.2,3.4c-0.2,1.2-0.1,2.2,0.2,3.2c0.3,1,0.9,1.7,1.6,2.4 c0.8,0.6,1.8,0.9,3.2,0.9c3.2,0,6.1-1.1,8.7-3.2c2.6-2.1,4.7-5.2,6.3-9.2c1.2-3.1,2.4-6,3.6-8.8c0.5-1.2,1-2.4,1.5-3.7 c0.5-1.2,0.6-1.6,1.5-3.7c0.5-1.2,1-2.3,1.4-3.3C112.8,18.5,113.2,17.6,113.5,16.8"></path> <path id="XMLID_149_" d="M127.4,20.6c0.1,1.6-0.9,7.5-6.8,7.9c-1.8,0-1.9-0.5-1.9-0.5c0.5-1.2,0.7-1.8,1.3-2.8 c0.6-1.1,1.2-2.1,1.8-2.9c0.6-0.9,1.2-1.6,1.7-2.2c0.6-0.6,1-1,1.5-1.1C125.6,18.6,127.3,19,127.4,20.6 M118.2,35.5 c-0.9-1.2-1.1-2.8-0.6-4.6c0,0,5.9,1.5,10.4-2.3c1.6-1.5,2.3-2.4,3-3.8c0.6-1.4,0.9-2.8,0.8-4c-0.1-1.3-0.6-2.3-1.5-3.2 c-0.9-0.9-2.2-1.3-3.9-1.3c-3.2,0-6.1,1-8.7,3.1c-2.6,2.1-4.7,5.1-6.3,9.2c-0.7,1.7-1,3.3-0.9,4.8c0,1.5,0.4,2.8,1.1,3.9 c0.7,1.1,1.6,2,2.8,2.6c1.2,0.6,2.7,1,4.4,1c3.4,0,6.3-0.6,8.8-1.9c2.5-1.2,4.3-3,5.3-5.2l-1.2-1.6c-0.5,0.7-0.9,1.3-1.6,1.9 c-0.7,0.6-1.5,1.2-2.3,1.7c-0.9,0.5-1.7,0.9-2.7,1.1c-0.9,0.3-1.8,0.4-2.7,0.4C120.6,37.3,119.1,36.7,118.2,35.5"></path> <path id="XMLID_148_" d="M201.5,35.4c-0.4-0.3-0.5-0.9-0.1-1.7l4-9.8c1-2.6,1.2-4.6,0.4-5.9c-0.8-1.3-2.2-2-4.2-2 c-1.2,0-2.4,0.3-3.6,0.8c-1.2,0.5-2.3,1.2-3.3,2.1c-0.5-1.9-2-2.9-4.5-2.9c-1.2,0-2.3,0.2-3.5,0.7c-1.2,0.5-2.2,1.2-3.2,2 c-0.4-1.8-1.9-2.7-4.7-2.7c-0.5,0-0.9,0-1.2,0.1c-0.4,0-0.7,0.1-1.1,0.2c-0.4,0.1-0.7,0.2-1.1,0.2l0.2,2l-0.4,0.7 c0.9,0,1.1,0.3,1.3,0.8c0.2,0.5,0.2,1.2-0.1,2c-0.2,0.5-0.6,1.3-0.9,2.2c-0.4,0.9-0.8,1.9-1.2,3c-0.4,1.1-0.9,2.1-1.3,3.1 c-0.3,0.7-0.4,0.8-0.7,1.8h0c-0.1,0.2-0.2,0.4-0.2,0.6c-0.8,1.9-1.2,3.4-1.1,4.6l0,0c0,0.6,0.1,1.1,0.3,1.5c0.6,1.3,2.1,1.9,4.4,1.9 c0.9,0,1.7-0.1,2.3-0.2c0.4-0.1,0.7-0.2,1.1-0.3l1.3-2.7h-0.6c-1,0-1.6-0.2-1.8-0.7c-0.2-0.5-0.2-1.2,0.2-2.1c0.1-0.3,0.4-1,0.7-1.9 c0.4-0.9,0.8-1.9,1.2-3c0.4-1.1,0.9-2.2,1.3-3.3c0.5-1.1,0.8-1.9,1.1-2.6c0.1-0.3,0.2-0.6,0.3-0.8c0.1-0.2,0.2-0.5,0.3-0.7 c0.6-0.5,1.2-0.9,1.9-1.2c0.6-0.2,1.2-0.3,1.6-0.3c0.5,0.1,0.8,0.3,1,0.6c0.2,0.4,0.2,0.8,0,1.5c-0.6,1.4-1.1,2.7-1.6,3.9 c-0.5,1.1-0.9,2.2-1.3,3.2c-0.4,1.1-0.7,1.9-1,2.5c-1.2,2.7-1.4,4.8-0.8,6.1c0.6,1.3,2.1,2,4.4,2c0.9,0,1.7-0.1,2.3-0.2 c0.4-0.1,0.7-0.2,1.1-0.3l1.2-2.7h-0.6c-0.9,0-1.5-0.2-1.7-0.7c-0.2-0.5-0.2-1.2,0.1-2.1l4.5-10.9c0.1-0.3,0.2-0.6,0.3-0.8 s0.2-0.5,0.3-0.7c0.6-0.5,1.2-0.9,1.8-1.1c0.6-0.2,1.2-0.3,1.6-0.2c0.5,0.1,0.8,0.3,1,0.6c0.2,0.3,0.2,0.8-0.1,1.4l-4,9.7 c-1.1,2.6-1.2,4.6-0.4,5.9c0.8,1.3,2.2,2,4.2,2c1,0,2-0.2,3-0.6c1-0.4,2-0.9,2.9-1.5c0.9-0.6,1.7-1.4,2.4-2.2c0.7-0.8,1-1.3,1.4-2.3 l-1.1-2c-0.5,1.1-0.9,1.7-1.7,2.4c-0.8,0.6-1.6,1-2.3,1.1C202.5,35.9,202,35.8,201.5,35.4"></path> <path id="XMLID_147_" d="M168.9,37.3l-0.7-2c-0.9,0.9-0.7,0.6-1.7,0.9c-0.6,0.2-1.1,0.3-1.6,0.3c-0.4,0-0.8-0.1-1.1-0.3 c-0.4-0.3-0.5-0.9-0.1-1.7c0.5-1.3,1.4-3.3,1.9-4.6c0.5-1.1,0.9-2.2,1.3-3.2s0.8-1.9,1-2.5c1.1-2.7,1.4-4.8,0.8-6.1 c-0.6-1.3-2.1-2-4.4-2c-0.4,0-0.8,0-1.2,0.1c-0.4,0-0.8,0.1-1.1,0.2c-0.4,0.1-0.7,0.2-1.1,0.2l0.2,2.1l-0.4,0.6c1,0,1,0.3,1.3,0.8 c0.2,0.5,0.2,1.2-0.1,2c-0.2,0.5-0.5,1.2-0.9,2.2c-0.4,1-0.8,2.1-1.3,3.2c-0.5,1.1-0.9,2.2-1.3,3.2c-0.4,1-0.8,1.8-1,2.3 c-1.1,2.6-1.2,4.6-0.4,5.9c0.8,1.3,2.2,2,4.2,2c1,0,2-0.2,3-0.6c1-0.4,2-0.9,2.9-1.5C167.8,38.3,168.4,37.9,168.9,37.3"></path> <path id="XMLID_143_" d="M30.9,11.5c-0.7,2-1.8,3.8-3.3,5.2c-1.5,1.5-3.1,2.2-5,2.2c-1.4,0.1-2.1,0.1-2.9-0.1l6.1-14 c0.3,0,0.5-0.1,0.8-0.1c0.3,0,0.5,0,0.8,0c0.6,0,1.2,0.1,1.8,0.4c0.6,0.3,1,0.7,1.4,1.3c0.4,0.6,0.6,1.3,0.7,2.1 C31.4,9.4,31.2,10.3,30.9,11.5 M18.2,22.5c0.8-0.1,9.1-2.2,9.4,3.1c0.1,13.7-14.9,11.3-15.5,11L18.2,22.5z M39.1,7.8 c-0.3-1.2-0.8-2.3-1.7-3.2c-0.9-0.9-2-1.6-3.5-2c-1.5-0.5-3.1-0.7-5-0.7c-2,0-4.6,0.1-7,0.3c0,0,0,0,0,0c-0.1,0-0.3,0-0.7,0.1 c-0.6,0.1-1.2,0.1-1.7,0.2c-0.2,0-0.4,0-0.6,0.1c-0.2,0-0.4,0-0.7,0.1c-1.2,0.1-2.2,0.2-2.4,0.3C15.3,3,15,3.1,14.6,3.2L14.3,5 l0,0.8c1,0,1.2,0.3,1.4,0.9c0.2,0.5,0.2,1.2-0.1,2c-0.2,0.5-0.5,1.2-0.9,2.2c0,0,0,0,0,0l-2.3,5.1L1.7,40.5h8l0.3-0.8 c11.9,3.3,20.4-0.5,23.9-8.6c0.5-1.3,0.8-2.6,0.8-3.8c0-1.2-0.2-2.3-0.7-3.3c-0.5-1-1.1-1.8-2-2.5c-0.8-0.7-1.8-1.1-3-1.3 c0.9-0.3,1.8-0.7,2.8-1.3c1-0.6,2-1.2,2.9-1.9c0.9-0.7,1.7-1.5,2.4-2.4s1.2-1.7,1.5-2.7C39.2,10.5,39.3,9.1,39.1,7.8"></path> <path id="XMLID_142_" d="M86.6,21.7c-0.3-2.4-1.9-4.3-3.6-4.5c-0.2,0-0.5-0.1-0.7-0.1c-0.3,0-0.7,0-1.1,0.1 c-0.4,0.1-0.7,0.2-1.1,0.4c-0.8,0.4-1.6,0.9-2.4,1.5c-0.2,0.2-0.5,0.5-0.7,0.7l-0.1-0.4c-0.2-1.1-0.9-1.8-1.7-2.3 c-0.8-0.5-1.6-1-2.9-1c-1,0-2,0.2-3,0.6c-1,0.4-2,0.9-2.9,1.5c-0.9,0.6-1.7,1.4-2.4,2.3c-0.7,0.9-1.3,1.8-1.7,2.8l1.1,1.8 c0.5-1.1,1.2-2,2.1-2.7c0.8-0.6,1.6-1,2.3-1.1c0.7-0.1,1.3,0,1.7,0.3c0.4,0.3,0.5,0.9,0.1,1.7l-7.1,17.5h6.9l6.1-15.2 c0.4-0.7,1.2-2.4,3.1-2.3c0.3,0,0.6,0.1,0.9,0.4c0.3,0.3,0.5,1.1,0.6,1.4c0.5,1.2,1.6,2.1,3.1,2.1c1.8,0,3.3-1.4,3.4-3.1 C86.8,23.3,86.8,22.6,86.6,21.7"></path> <path id="XMLID_141_" d="M158,21.7c-0.3-2.4-1.9-4.3-3.6-4.5c-0.2,0-0.5-0.1-0.7-0.1c-0.3,0-0.7,0-1.1,0.1c-0.4,0.1-0.7,0.2-1.1,0.4 c-0.8,0.4-1.6,0.9-2.4,1.5c-0.2,0.2-0.5,0.5-0.7,0.7l-0.1-0.4c-0.2-1.1-0.9-1.7-1.7-2.2c-0.8-0.5-1.6-1.1-2.9-1.1c-1,0-2,0.2-3,0.6 c-1,0.4-2,0.9-2.9,1.5c-0.9,0.6-1.7,1.4-2.4,2.3c-0.7,0.9-1.6,2.2-2,3.2l1.2,1.5c0.5-1.1,1.4-2.2,2.2-2.8c0.8-0.6,1.6-1,2.3-1.1 c0.7-0.1,1.3,0,1.7,0.3c0.4,0.3,0.5,0.9,0.1,1.7l-7.1,17.5h6.9l6.1-15.2c0.4-0.7,1.2-2.4,3.1-2.3c0.3,0,0.6,0.1,0.9,0.4 c0.3,0.3,0.5,1.1,0.6,1.4c0.5,1.2,1.6,2.1,3.1,2.1c1.8,0,3.3-1.4,3.4-3.1C158.1,23.3,158.1,22.6,158,21.7"></path> <path id="XMLID_140_" d="M165.6,13c0.9,0,1.8-0.3,2.4-1c0.7-0.7,1-1.5,1-2.4c0-0.9-0.3-1.8-1-2.4c-0.7-0.7-1.5-1-2.4-1 c-1,0-1.8,0.3-2.5,1c-0.7,0.7-1,1.5-1,2.4c0,0.9,0.3,1.8,1,2.4C163.8,12.7,164.6,13,165.6,13"></path> <path id="XMLID_139_" fill="#FFFFFF" d="M61.1,15.6h-6.9l-6.7,16.3c-0.1,0.2,0.1-0.2-0.2,0.4c-0.3,0.6-1.4,1.7-2.1,2 c-0.7,0.4-1.3,0.5-1.9,0.5c-0.5,0-0.9-0.2-1.2-0.5c-0.3-0.4-0.3-0.9,0-1.6c0.5-1.3,1.1-2.6,1.6-3.9c0.5-1.1,0.9-2.2,1.3-3.2 c0.4-1.1,0.8-1.9,1-2.5c1.2-2.7,1.5-4.8,0.9-6.1c-0.6-1.3-2-2-4.4-2c-0.5,0-0.9,0-1.3,0.1c-0.4,0-0.8,0.1-1.1,0.2 c-0.4,0.1-0.7,0.2-1.1,0.2l-1.2,2.7h0.6c1,0,1.6,0.3,1.8,0.8c0.2,0.5,0.2,1.2-0.2,2c-0.2,0.5-0.5,1.2-0.9,2.2 c-0.4,1-0.8,2.1-1.3,3.2c-0.5,1.1-0.9,2.2-1.3,3.2c-0.4,1-0.8,1.8-1,2.3c-0.5,1.3-0.8,2.4-0.9,3.4c0,1,0.1,1.8,0.5,2.5 c0.4,0.7,0.9,1.2,1.6,1.5c0.7,0.3,1.6,0.5,2.6,0.5c1.2,0,2.5-0.3,3.8-0.9c1.3-0.6,2.5-1.4,3.5-2.4c0.2,1.1,0.7,1.9,1.5,2.4 c0.8,0.5,1.8,0.8,3.1,0.8c1,0,2-0.2,3-0.6c1-0.4,2-0.9,2.9-1.5c0.9-0.6,1.7-1.4,2.4-2.2c0.7-0.8,1.2-1.6,1.7-2.6l-1.3-1.9 c-0.5,1.1-0.9,1.9-1.8,2.5c-0.8,0.6-1.6,1-2.3,1.1c-0.7,0.1-1.3,0-1.7-0.3s-0.5-0.9-0.1-1.7L61.1,15.6z"></path> <path id="XMLID_135_" fill="#FFFFFF" d="M93.9,39.4c0.9-0.3,1.8-0.8,2.7-1.3c-0.4,1.1-0.9,2.2-1.5,3.4c-0.6,1.1-1.3,2.2-2,3.1 c-0.7,0.9-1.5,1.6-2.3,2.2c-0.8,0.6-1.6,0.8-2.4,0.8c-0.8,0-1.5-0.3-2-0.9c-0.5-0.6-0.7-1.4-0.5-2.5c0.3-1.2,0.7-2.2,1.2-3 s1-1.4,1.6-1.8c0.4,0.1,0.8,0.2,1.2,0.3c0.4,0.1,0.9,0.1,1.4,0.1C92.1,39.9,93,39.7,93.9,39.4 M92.4,35.3c-0.3-0.5-0.4-1.1-0.4-1.9 c0-0.8,0.2-1.7,0.6-2.8c0.4-1.1,0.8-2.2,1.5-3.4c0.8-1.6,1.5-3,2.2-4.1c0.7-1.1,1.4-2,2.1-2.7c0.7-0.7,1.4-1.2,2.1-1.5 c0.7-0.3,1.4-0.5,2.1-0.5s1.3,0.2,1.7,0.7l-6.1,14.8c-0.7,0.6-1.5,1-2.2,1.4c-0.7,0.4-1.4,0.5-2,0.5C93.3,36,92.8,35.8,92.4,35.3 M112.7,15.7h-6.8l-0.4,1.1c-0.8-1.1-2-1.6-3.5-1.6c-2.9,0-5.6,1-8.3,3c-2.7,2-4.9,5.1-6.7,9.3c-0.9,2.2-1.4,4.3-1.4,6.1 c0,1.8,0.4,3.3,1.3,4.4c-0.7,0.7-1.4,1.5-2,2.5c-0.6,1.1-1,2.3-1.2,3.4c-0.2,1.2-0.1,2.2,0.2,3.2c0.3,1,0.9,1.7,1.6,2.4 c0.8,0.6,1.8,0.9,3.2,0.9c3.2,0,6.1-1.1,8.7-3.2c2.6-2.1,4.7-5.2,6.3-9.2c1.2-3.1,2.4-6,3.6-8.8c0.5-1.2,1-2.4,1.5-3.7 c0.5-1.2,0.6-1.6,1.5-3.7c0.5-1.2,1-2.3,1.4-3.3C112,17.4,112.3,16.5,112.7,15.7"></path> <path id="XMLID_132_" fill="#FFFFFF" d="M126.6,19.5c0.1,1.6-0.9,7.5-6.8,7.9c-1.8,0-1.9-0.5-1.9-0.5c0.5-1.2,0.7-1.8,1.3-2.8 c0.6-1.1,1.2-2.1,1.8-2.9c0.6-0.9,1.2-1.6,1.7-2.2c0.6-0.6,1-1,1.5-1.1C124.7,17.6,126.4,17.9,126.6,19.5 M117.4,34.4 c-0.9-1.2-1.1-2.8-0.6-4.6c0,0,5.9,1.5,10.4-2.3c1.6-1.5,2.3-2.4,3-3.8c0.6-1.4,0.9-2.8,0.8-4c-0.1-1.3-0.6-2.3-1.5-3.2 c-0.9-0.9-2.2-1.3-3.9-1.3c-3.2,0-6.1,1-8.7,3.1c-2.6,2.1-4.7,5.1-6.3,9.2c-0.7,1.7-1,3.3-0.9,4.8c0,1.5,0.4,2.8,1.1,3.9 c0.7,1.1,1.6,2,2.8,2.6c1.2,0.6,2.7,1,4.4,1c3.4,0,6.3-0.6,8.8-1.9c2.5-1.2,4.3-3.1,5.4-5.3l-1.1-1.8c-0.5,0.7-1,1.5-1.7,2.2 c-0.7,0.6-1.5,1.2-2.3,1.7c-0.9,0.5-1.7,0.9-2.7,1.1c-0.9,0.3-1.8,0.4-2.7,0.4C119.7,36.2,118.3,35.6,117.4,34.4"></path> <path id="XMLID_131_" fill="#FFFFFF" d="M200.7,34.3c-0.4-0.3-0.5-0.9-0.1-1.7l4-9.8c1-2.6,1.2-4.6,0.4-5.9c-0.8-1.3-2.2-2-4.2-2 c-1.2,0-2.4,0.3-3.6,0.8c-1.2,0.5-2.3,1.2-3.3,2.1c-0.5-1.9-2-2.9-4.5-2.9c-1.2,0-2.3,0.2-3.5,0.7c-1.2,0.5-2.2,1.2-3.2,2 c-0.4-1.8-1.9-2.7-4.7-2.7c-0.5,0-0.9,0-1.2,0.1c-0.4,0-0.7,0.1-1.1,0.2c-0.4,0.1-0.7,0.2-1.1,0.2l-1.2,2.7h0.6 c0.9,0,1.5,0.3,1.7,0.8c0.2,0.5,0.2,1.2-0.1,2c-0.2,0.5-0.6,1.3-0.9,2.2c-0.4,0.9-0.8,1.9-1.2,3c-0.4,1.1-0.9,2.1-1.3,3.1 c-0.3,0.7-0.4,0.8-0.7,1.8h0c-0.1,0.2-0.2,0.4-0.2,0.6c-0.8,1.9-1.2,3.4-1.1,4.6l0,0c0,0.6,0.1,1.1,0.3,1.5c0.6,1.3,2.1,1.9,4.4,1.9 c0.9,0,1.7-0.1,2.3-0.2c0.4-0.1,0.7-0.2,1.1-0.3l1.3-2.7h-0.6c-1,0-1.6-0.2-1.8-0.7c-0.2-0.5-0.2-1.2,0.2-2.1c0.1-0.3,0.4-1,0.7-1.9 c0.4-0.9,0.8-1.9,1.2-3c0.4-1.1,0.9-2.2,1.3-3.3c0.5-1.1,0.8-1.9,1.1-2.6c0.1-0.3,0.2-0.6,0.3-0.8c0.1-0.2,0.2-0.5,0.3-0.7 c0.6-0.5,1.2-0.9,1.9-1.2c0.6-0.2,1.2-0.3,1.6-0.3c0.5,0.1,0.8,0.3,1,0.6c0.2,0.4,0.2,0.8,0,1.5c-0.6,1.4-1.1,2.7-1.6,3.9 c-0.5,1.1-0.9,2.2-1.3,3.2c-0.4,1.1-0.7,1.9-1,2.5c-1.2,2.7-1.4,4.8-0.8,6.1c0.6,1.3,2.1,2,4.4,2c0.9,0,1.7-0.1,2.3-0.2 c0.4-0.1,0.7-0.2,1.1-0.3l1.2-2.7h-0.6c-0.9,0-1.5-0.2-1.7-0.7c-0.2-0.5-0.2-1.2,0.1-2.1l4.5-10.9c0.1-0.3,0.2-0.6,0.3-0.8 s0.2-0.5,0.3-0.7c0.6-0.5,1.2-0.9,1.8-1.1c0.6-0.2,1.2-0.3,1.6-0.2c0.5,0.1,0.8,0.3,1,0.6c0.2,0.3,0.2,0.8-0.1,1.4l-4,9.7 c-1.1,2.6-1.2,4.6-0.4,5.9c0.8,1.3,2.2,2,4.2,2c1,0,2-0.2,3-0.6c1-0.4,2-0.9,2.9-1.5c0.9-0.6,1.7-1.4,2.4-2.2 c0.7-0.8,1.1-1.8,1.5-2.8l-1.1-1.6c-0.5,1.1-1,1.9-1.8,2.5c-0.8,0.6-1.6,1-2.3,1.1C201.7,34.8,201.1,34.7,200.7,34.3"></path> <path id="XMLID_130_" fill="#FFFFFF" d="M162.8,33.4c0.5-1.3,1.4-3.3,1.9-4.6c0.5-1.1,0.9-2.2,1.3-3.2c0.4-1.1,0.8-1.9,1-2.5 c1.1-2.7,1.4-4.8,0.8-6.1c-0.6-1.3-2.1-2-4.4-2c-0.4,0-0.8,0-1.2,0.1c-0.4,0-0.8,0.1-1.1,0.2c-0.4,0.1-0.7,0.2-1.1,0.2l-1.3,2.7h0.6 c1,0,1.6,0.3,1.8,0.8c0.2,0.5,0.2,1.2-0.1,2c-0.2,0.5-0.5,1.2-0.9,2.2c-0.4,1-0.8,2.1-1.3,3.2c-0.5,1.1-0.9,2.2-1.3,3.2 c-0.4,1-0.8,1.8-1,2.3c-1.1,2.6-1.2,4.6-0.4,5.9c0.8,1.3,2.2,2,4.2,2c1,0,2-0.2,3-0.6c1-0.4,2-0.9,2.9-1.5c0.7-0.5,1.6-1.3,2.1-1.8 l0,0l-0.1-0.4l-0.5-2c-0.9,0.9-1.1,1.3-2.1,1.6c-0.6,0.2-1.1,0.3-1.6,0.3c-0.4,0-0.8-0.1-1.1-0.3C162.5,34.8,162.5,34.3,162.8,33.4"></path> <path id="XMLID_126_" fill="#FFFFFF" d="M30,10.4c-0.7,2-1.8,3.8-3.3,5.2c-1.5,1.5-3.1,2.2-5,2.2c-1.4,0.1-2.1,0.1-2.9-0.1l6.1-14 c0.3,0,0.5-0.1,0.8-0.1c0.3,0,0.5,0,0.8,0c0.6,0,1.2,0.1,1.8,0.4c0.6,0.3,1,0.7,1.4,1.3c0.4,0.6,0.6,1.3,0.7,2.1 C30.5,8.3,30.4,9.3,30,10.4 M17.3,21.5c0.8-0.1,9.1-2.2,9.4,3.1c0.1,13.7-14.9,11.3-15.5,11L17.3,21.5z M38.2,6.8 c-0.3-1.2-0.8-2.3-1.7-3.2c-0.9-0.9-2-1.6-3.5-2c-1.5-0.5-3.1-0.7-5-0.7c-2,0-4.6,0.1-7,0.3c0,0,0,0,0,0c-0.1,0-0.3,0-0.7,0.1 c-0.6,0.1-1.2,0.1-1.7,0.2c-0.2,0-0.4,0-0.6,0.1c-0.2,0-0.4,0-0.7,0.1C16,1.7,15,1.8,14.8,1.8c-0.4,0.1-0.7,0.2-1.1,0.2l-1.3,2.7 h0.6c1,0,1.6,0.3,1.8,0.8c0.2,0.5,0.2,1.2-0.1,2c-0.2,0.5-0.5,1.2-0.9,2.2c0,0,0,0,0,0l-2.3,5.1L0.9,39.5h8l0.3-0.8 C21,42,29.5,38.2,33,30.1c0.5-1.3,0.8-2.6,0.8-3.8c0-1.2-0.2-2.3-0.7-3.3c-0.5-1-1.1-1.8-2-2.5c-0.8-0.7-1.8-1.1-3-1.3 C29,19,30,18.5,31,18c1-0.6,2-1.2,2.9-1.9c0.9-0.7,1.7-1.5,2.4-2.4s1.2-1.7,1.5-2.7C38.3,9.4,38.5,8,38.2,6.8"></path> <path id="XMLID_125_" fill="#FFFFFF" d="M85.8,20.7c-0.3-2.4-1.9-4.3-3.6-4.5c-0.2,0-0.5-0.1-0.7-0.1c-0.3,0-0.7,0-1.1,0.1 c-0.4,0.1-0.7,0.2-1.1,0.4c-0.8,0.4-1.6,0.9-2.4,1.5c-0.2,0.2-0.5,0.5-0.7,0.7l-0.1-0.4c-0.2-1.1-0.7-1.9-1.5-2.5 c-0.8-0.6-1.8-0.8-3.1-0.8c-1,0-2,0.2-3,0.6c-1,0.4-2,0.9-2.9,1.5c-0.9,0.6-1.7,1.4-2.4,2.3c-0.7,0.9-1.3,1.8-1.7,2.8l1.1,1.8 c0.5-1.1,1.2-2,2.1-2.7c0.8-0.6,1.6-1,2.3-1.1c0.7-0.1,1.3,0,1.7,0.3c0.4,0.3,0.5,0.9,0.1,1.7l-7.1,17.5h6.9l6.1-15.2 c0.4-0.7,1.2-2.4,3.1-2.3c0.3,0,0.6,0.1,0.9,0.4c0.3,0.3,0.5,1.1,0.6,1.4c0.5,1.2,1.6,2.1,3.1,2.1c1.8,0,3.3-1.4,3.4-3.1 C85.9,22.2,85.9,21.5,85.8,20.7"></path> <path id="XMLID_124_" fill="#FFFFFF" d="M157.1,20.7c-0.3-2.4-1.9-4.3-3.6-4.5c-0.2,0-0.5-0.1-0.7-0.1c-0.3,0-0.7,0-1.1,0.1 c-0.4,0.1-0.7,0.2-1.1,0.4c-0.8,0.4-1.6,0.9-2.4,1.5c-0.2,0.2-0.5,0.5-0.7,0.7l-0.1-0.4c-0.2-1.1-0.7-1.9-1.5-2.5 c-0.8-0.6-1.8-0.8-3.1-0.8c-1,0-2,0.2-3,0.6c-1,0.4-2,0.9-2.9,1.5c-0.9,0.6-1.7,1.4-2.4,2.3c-0.7,0.9-1.5,2.1-1.9,3.1l1,1.7 c0.5-1.1,1.5-2.2,2.3-2.9c0.8-0.6,1.6-1,2.3-1.1c0.7-0.1,1.3,0,1.7,0.3c0.4,0.3,0.5,0.9,0.1,1.7L133,39.7h6.9l6.1-15.2 c0.4-0.7,1.2-2.4,3.1-2.3c0.3,0,0.6,0.1,0.9,0.4c0.3,0.3,0.5,1.1,0.6,1.4c0.5,1.2,1.6,2.1,3.1,2.1c1.8,0,3.3-1.4,3.4-3.1 C157.2,22.2,157.2,21.5,157.1,20.7"></path> <path id="XMLID_123_" fill="#FFFFFF" d="M164.8,12c0.9,0,1.8-0.3,2.4-1c0.7-0.7,1-1.5,1-2.4c0-0.9-0.3-1.8-1-2.4 c-0.7-0.7-1.5-1-2.4-1c-1,0-1.8,0.3-2.5,1c-0.7,0.7-1,1.5-1,2.4c0,0.9,0.3,1.8,1,2.4C163,11.6,163.8,12,164.8,12"></path> <path id="XMLID_122_" fill="#8F1625" d="M60.2,14.7h-6.9L46.6,31c-0.1,0.2,0.1-0.2-0.2,0.4c-0.3,0.6-1.4,1.7-2.1,2 C43.6,33.8,43,34,42.4,34c-0.5,0-0.9-0.2-1.2-0.5c-0.3-0.4-0.3-0.9,0-1.6c0.5-1.3,1.1-2.6,1.6-3.9c0.5-1.1,0.9-2.2,1.3-3.2 c0.4-1.1,0.8-1.9,1-2.5c1.2-2.7,1.5-4.8,0.9-6.1c-0.6-1.3-2-2-4.4-2c-0.5,0-0.9,0-1.3,0.1c-0.4,0-0.8,0.1-1.1,0.2 c-0.4,0.1-0.7,0.2-1.1,0.2l-1.2,2.7h0.6c1,0,1.6,0.3,1.8,0.8c0.2,0.5,0.2,1.2-0.2,2c-0.2,0.5-0.5,1.2-0.9,2.2 c-0.4,1-0.8,2.1-1.3,3.2c-0.5,1.1-0.9,2.2-1.3,3.2c-0.4,1-0.8,1.8-1,2.3c-0.5,1.3-0.8,2.4-0.9,3.4c0,1,0.1,1.8,0.5,2.5 c0.4,0.7,0.9,1.2,1.6,1.5c0.7,0.3,1.6,0.5,2.6,0.5c1.2,0,2.5-0.3,3.8-0.9c1.3-0.6,2.5-1.4,3.5-2.4c0.2,1.1,0.7,1.9,1.5,2.4 c0.8,0.5,1.8,0.8,3.1,0.8c1,0,2-0.2,3-0.6c1-0.4,2-0.9,2.9-1.5c0.9-0.6,1.7-1.4,2.4-2.2c0.7-0.8,1.3-1.8,1.7-2.8l-1.1-1.7 c-0.5,1.1-1.2,2-2.1,2.6c-0.8,0.6-1.6,1-2.3,1.1c-0.7,0.1-1.3,0-1.7-0.3s-0.5-0.9-0.1-1.7L60.2,14.7z"></path> <g id="XMLID_115_"> <defs> <path id="XMLID_116_" d="M40.3,14.3c-0.4,0-0.8,0.1-1.1,0.2c-0.4,0.1-0.7,0.2-1.1,0.2l-1.2,2.7h0.6c1,0,1.6,0.3,1.8,0.8 c0.2,0.5,0.2,1.2-0.2,2c-0.2,0.5-0.5,1.2-0.9,2.2c-0.4,1-0.8,2.1-1.3,3.2c-0.5,1.1-0.9,2.2-1.3,3.2c-0.4,1-0.8,1.8-1,2.3 c-0.5,1.3-0.8,2.4-0.9,3.4c0,1,0.1,1.8,0.5,2.5c0.4,0.7,0.9,1.2,1.6,1.5c0.7,0.3,1.6,0.5,2.6,0.5c1.2,0,2.5-0.3,3.8-0.9 c1.3-0.6,2.5-1.4,3.5-2.4c0.2,1.1,0.7,1.9,1.5,2.4c0.8,0.5,1.8,0.8,3.1,0.8c1,0,2-0.2,3-0.6c1-0.4,2-0.9,2.9-1.5 c0.9-0.6,1.7-1.4,2.4-2.2c0.7-0.8,1.3-1.8,1.7-2.8l-1.1-1.7c-0.5,1.1-1.2,2-2.1,2.6c-0.8,0.6-1.6,1-2.3,1.1 c-0.7,0.1-1.3,0-1.7-0.3s-0.5-0.9-0.1-1.7l7.1-17.2h-6.9L46.6,31c0,0.1,0,0.1,0,0.1c0,0,0,0-0.2,0.4c-0.3,0.6-1.4,1.7-2.1,2 C43.6,33.8,43,34,42.4,34c-0.5,0-0.9-0.2-1.2-0.5c-0.3-0.4-0.3-0.9,0-1.6c0.5-1.3,1.1-2.6,1.6-3.9c0.5-1.1,0.9-2.2,1.3-3.2 c0.4-1.1,0.8-1.9,1-2.5c1.2-2.7,1.4-4.8,0.9-6.1c-0.6-1.3-2.1-2-4.4-2C41.1,14.2,40.7,14.2,40.3,14.3"></path> </defs> <clipPath id="XMLID_92_"> </clipPath> <g id="XMLID_117_" opacity="0.5" clip-path="url(#XMLID_92_)"> <g id="XMLID_118_"> <defs> <rect id="XMLID_119_" x="32.2" y="12.5" width="28.9" height="26.7"></rect> </defs> <clipPath id="XMLID_93_"> </clipPath> <path id="XMLID_120_" clip-path="url(#XMLID_93_)" fill="#EF4124" d="M59.6,14h-6.9L46,30.3c-0.1,0.2,0.1-0.2-0.2,0.4 c-0.3,0.6-1.3,2.6-2,3c-0.7,0.4-1.4,0.4-2,0.4c-0.5,0-1.3-0.2-1.5-0.6c-0.3-0.4-0.3-0.9,0-1.6c0.5-1.3,1.4-3.3,1.8-4.6 c0.5-1.1,0.9-2.2,1.3-3.2c0.4-1.1,0.8-1.9,1-2.5c1.2-2.7,1.5-4.8,0.9-6.1c-0.6-1.3-2-2-4.4-2c-0.5,0-0.9,0-1.3,0.1 c-0.4,0-0.8,0.1-1.1,0.2c-0.4,0.1-0.7,0.2-1.1,0.2l-1.2,2.7l0.2,1.4c1,0,1.6-0.6,1.9-0.1c0.2,0.5,0.6,0.7,0.2,1.6 c-0.2,0.5-0.5,1.2-0.9,2.2c-0.4,1-0.8,2.1-1.3,3.2C35.9,25.9,35.4,27,35,28c-0.4,1-0.8,1.8-1,2.3c-0.5,1.3-0.8,2.4-0.9,3.4 c0,1,0.1,1.8,0.5,2.5c0.4,0.7,0.9,1.2,1.6,1.5c0.7,0.3,1.6,0.5,2.6,0.5c1.2,0,2.5-0.3,3.8-0.9c1.3-0.6,2.9-1.8,3.9-2.8 c0.2,1.1,0.3,2.4,1.1,2.9c0.8,0.5,1.8,0.8,3.1,0.8c1,0,2-0.2,3-0.6c1-0.4,2-0.9,2.9-1.5c0.9-0.6,1.7-1.4,2.4-2.2 c0.7-0.8,1.6-2.3,2-3.3l-1.3-1.2c-0.5,1.1-1.2,2-2.1,2.6c-0.8,0.6-1.3,1.8-2.1,1.9c-1.1,0.1-1.5-0.1-2-0.5 c-0.4-0.4-0.4-1.5-0.1-2.3L59.6,14z"></path> </g> </g> </g> <path id="XMLID_111_" fill="#8F1625" d="M93,38.6c0.9-0.3,1.8-0.8,2.7-1.3c-0.4,1.1-0.9,2.2-1.5,3.4c-0.6,1.1-1.3,2.2-2,3.1 c-0.7,0.9-1.5,1.6-2.3,2.2c-0.8,0.6-1.6,0.8-2.4,0.8c-0.8,0-1.5-0.3-2-0.9c-0.5-0.6-0.7-1.4-0.5-2.5c0.3-1.2,0.7-2.2,1.2-3 s1-1.4,1.6-1.8c0.4,0.1,0.8,0.2,1.2,0.3c0.4,0.1,0.9,0.1,1.4,0.1C91.3,39,92.1,38.9,93,38.6 M91.6,34.4c-0.3-0.5-0.4-1.1-0.4-1.9 c0-0.8,0.2-1.7,0.6-2.8c0.4-1.1,0.8-2.2,1.5-3.4c0.8-1.6,1.5-3,2.2-4.1c0.7-1.1,1.4-2,2.1-2.7c0.7-0.7,1.4-1.2,2.1-1.5 c0.7-0.3,1.4-0.5,2.1-0.5s1.3,0.2,1.7,0.7l-6.1,14.8c-0.7,0.6-1.5,1-2.2,1.4c-0.7,0.4-1.4,0.5-2,0.5C92.4,35.1,91.9,34.9,91.6,34.4 M111.8,14.9H105l-0.4,1.1c-0.8-1.1-2-1.6-3.5-1.6c-2.9,0-5.6,1-8.3,3c-2.7,2-4.9,5.1-6.7,9.3c-0.9,2.2-1.4,4.3-1.4,6.1 c0,1.8,0.4,3.3,1.3,4.4c-0.7,0.7-1.4,1.5-2,2.5c-0.6,1.1-1,2.3-1.2,3.4c-0.2,1.2-0.1,2.2,0.2,3.2c0.3,1,0.9,1.7,1.6,2.4 c0.8,0.6,1.8,0.9,3.2,0.9c3.2,0,6.1-1.1,8.7-3.2c2.6-2.1,4.7-5.2,6.3-9.2c1.2-3.1,2.4-6,3.6-8.8c0.5-1.2,1-2.4,1.5-3.7 c0.5-1.2,0.6-1.6,1.5-3.7c0.5-1.2,1-2.3,1.4-3.3C111.1,16.6,111.5,15.6,111.8,14.9"></path> <g id="XMLID_97_"> <defs> <path id="XMLID_98_" d="M93,38.6c0.9-0.3,1.8-0.8,2.7-1.3c-0.4,1.1-0.9,2.2-1.5,3.4c-0.6,1.1-1.3,2.2-2,3.1 c-0.7,0.9-1.5,1.6-2.3,2.2c-0.8,0.6-1.6,0.8-2.4,0.8c-0.8,0-1.5-0.3-2-0.9c-0.5-0.6-0.7-1.4-0.5-2.5c0.3-1.2,0.7-2.2,1.2-3 c0.5-0.8,1-1.4,1.6-1.8c0.4,0.1,0.8,0.2,1.2,0.3c0.4,0.1,0.9,0.1,1.4,0.1C91.3,39,92.1,38.9,93,38.6 M91.6,34.4 c-0.3-0.5-0.4-1.1-0.4-1.9c0-0.8,0.2-1.7,0.6-2.8c0.4-1.1,0.8-2.2,1.5-3.4c0.8-1.6,1.5-3,2.2-4.1c0.7-1.1,1.4-2,2.1-2.7 c0.7-0.7,1.4-1.2,2.1-1.5c0.7-0.3,1.4-0.5,2.1-0.5c0.7,0,1.3,0.2,1.7,0.7l-6.1,14.8c-0.7,0.6-1.5,1-2.2,1.4 c-0.7,0.4-1.4,0.5-2,0.5C92.4,35.1,91.9,34.9,91.6,34.4 M92.7,17.3c-2.7,2-4.9,5.1-6.7,9.3c-0.9,2.2-1.4,4.3-1.4,6.1 c0,1.8,0.4,3.3,1.3,4.4c-0.7,0.7-1.4,1.5-2,2.5c-0.6,1.1-1,2.3-1.2,3.4c-0.2,1.2-0.1,2.2,0.2,3.2s0.9,1.7,1.6,2.4 c0.8,0.6,1.8,0.9,3.2,0.9c3.2,0,6.1-1.1,8.7-3.2c2.6-2.1,4.7-5.2,6.3-9.2c1.2-3.1,2.4-6,3.6-8.8c0.5-1.2,1-2.4,1.5-3.7 c0.5-1.2,0.6-1.6,1.5-3.7c0.5-1.2,1-2.3,1.4-3.3c0.4-1,0.8-1.9,1.1-2.7H105l-0.4,1.1c-0.8-1.1-2-1.6-3.5-1.6 C98.1,14.4,95.4,15.4,92.7,17.3"></path> </defs> <clipPath id="XMLID_109_"> </clipPath> <g id="XMLID_102_" opacity="0.5" clip-path="url(#XMLID_109_)"> <g id="XMLID_103_"> <defs> <rect id="XMLID_104_" x="81" y="12.8" width="31.2" height="37.1"></rect> </defs> <clipPath id="XMLID_110_"> </clipPath> <path id="XMLID_105_" clip-path="url(#XMLID_110_)" fill="#EF4124" d="M84.4,43.3c0.1-0.8,0.7-2.7,1.2-3.5s1-1.4,1.6-1.8 c0.4,0.1,0.8,0.2,1.2,0.3c0.4,0.1,0.9,0.1,1.4,0.1c0.8,0,1.7-0.2,2.6-0.5c0.9-0.3,2.8-1.1,3.7-1.6c-0.4,1.1-0.9,2.2-1.5,3.4 c-0.6,1.1-2.3,2.5-3,3.4c-0.7,0.9-1.5,2.2-2.3,2.8c-0.8,0.6-1.6,0.8-2.4,0.8C86.9,46.7,84.2,46.4,84.4,43.3 M90.9,33.8 c-0.3-0.5-0.4-1.1-0.4-1.9c0-0.8,0.2-1.7,0.6-2.8c0.4-1.1,0.8-2.2,1.5-3.4c0.8-1.6,1.5-3,2.2-4.1c0.7-1.1,1.4-2,2.1-2.7 c0.7-0.7,1.4-1.2,2.1-1.5c0.7-0.3,1.4-0.4,2.1-0.5c1.1,0,2,0.8,2.4,1.3l-6.7,14.2c-0.7,0.6-1.5,1-2.2,1.4 c-0.7,0.4-1.5,1.2-2.1,1.1C91.6,34.8,91.3,34.3,90.9,33.8 M111.2,14.3h-6.8L104,15c-0.8-1.1-2.1-1.3-3.6-1.3c-2.9,0-5.6,1-8.3,3 c-2.7,2-4.9,5.1-6.7,9.3c-0.9,2.2-1.4,4.3-1.4,6.1c0,1.8,0.4,3.3,1.3,4.4c-0.7,0.7-1.4,1.5-2,2.5c-0.6,1.1-1,2.3-1.2,3.4 c-0.2,1.2-0.1,2.2,0.2,3.2c0.3,1,0.9,1.7,1.6,2.4c0.8,0.6,1.8,0.9,3.2,0.9c3.2,0,6.1-1.1,8.7-3.2c2.6-2.1,4.7-5.2,6.3-9.2 c1.2-3.1,2.4-6,3.6-8.8c0.5-1.2,1-2.4,1.5-3.7c0.5-1.2,0.6-1.6,1.5-3.7c0.5-1.2,1-2.3,1.4-3.3C110.5,16,110.8,15.1,111.2,14.3"></path> </g> </g> </g> <path id="XMLID_94_" fill="#8F1625" d="M126.1,18.6c0.1,1.6-0.9,7.5-6.8,7.9c-1.8,0-1.9-0.5-1.9-0.5c0.5-1.2,0.7-1.8,1.3-2.8 c0.6-1.1,1.2-2.1,1.8-2.9c0.6-0.9,1.2-1.6,1.7-2.2c0.6-0.6,1-1,1.5-1.1C124.3,16.7,126,17,126.1,18.6 M116.9,33.5 c-0.9-1.2-1.1-2.8-0.6-4.6c0,0,5.9,1.5,10.4-2.3c1.6-1.5,2.3-2.4,3-3.8c0.6-1.4,0.9-2.8,0.8-4c-0.1-1.3-0.6-2.3-1.5-3.2 c-0.9-0.9-2.2-1.3-3.9-1.3c-3.2,0-6.1,1-8.7,3.1c-2.6,2.1-4.7,5.1-6.3,9.2c-0.7,1.7-1,3.3-0.9,4.8c0,1.5,0.4,2.8,1.1,3.9 c0.7,1.1,1.6,2,2.8,2.6c1.2,0.6,2.7,1,4.4,1c3.4,0,6.3-0.6,8.8-1.9c2.5-1.2,4.3-3,5.3-5.2l-1.1-1.7c-0.5,0.7-1,1.4-1.7,2 c-0.7,0.6-1.5,1.2-2.3,1.7c-0.9,0.5-1.7,0.9-2.7,1.1c-0.9,0.3-1.8,0.4-2.7,0.4C119.3,35.3,117.9,34.7,116.9,33.5"></path> <g id="XMLID_82_"> <defs> <path id="XMLID_83_" d="M117.4,26c0.5-1.2,0.7-1.8,1.3-2.8c0.6-1.1,1.2-2.1,1.8-2.9s1.2-1.6,1.7-2.2c0.6-0.6,1-1,1.5-1.1 c0.6-0.2,2.3,0.1,2.5,1.7c0.1,1.6-0.9,7.5-6.8,7.9C117.6,26.5,117.4,26,117.4,26 M116.5,17.3c-2.6,2.1-4.7,5.1-6.3,9.2 c-0.7,1.7-1,3.3-0.9,4.8c0,1.5,0.4,2.8,1.1,3.9c0.7,1.1,1.6,2,2.8,2.6c1.2,0.6,2.7,1,4.4,1c3.4,0,6.3-0.6,8.8-1.9 c2.5-1.2,4.3-3,5.3-5.2l-1.1-1.7c-0.5,0.7-1,1.4-1.7,2c-0.7,0.6-1.5,1.2-2.3,1.7c-0.8,0.5-1.7,0.9-2.7,1.2 c-0.9,0.3-1.8,0.4-2.7,0.4c-1.9,0-3.4-0.6-4.3-1.8c-0.9-1.2-1.1-2.8-0.6-4.6c0,0,5.9,1.5,10.4-2.3c1.6-1.5,2.3-2.4,3-3.8 c0.6-1.4,0.9-2.8,0.8-4c-0.1-1.3-0.6-2.3-1.5-3.2c-0.9-0.9-2.2-1.3-3.9-1.3C122,14.1,119.1,15.2,116.5,17.3"></path> </defs> <clipPath id="XMLID_121_"> </clipPath> <g id="XMLID_86_" opacity="0.5" clip-path="url(#XMLID_121_)"> <g id="XMLID_87_"> <defs> <rect id="XMLID_88_" x="107.6" y="12.6" width="24.8" height="26.7"></rect> </defs> <clipPath id="XMLID_157_"> </clipPath> <path id="XMLID_89_" clip-path="url(#XMLID_157_)" fill="#EF4124" d="M126,18.2c0.1,1.6-1.8,7.8-7.7,8.2c-1.8-0.5-1.8-1-1.8-1 c0.5-1.2,0.9-1.8,1.5-2.9c0.6-1.1,1.2-2.1,1.8-2.9c0.6-0.9,1.2-1.6,1.7-2.2c0.6-0.6,1-1,1.5-1.1C123.6,16.1,125.9,16.7,126,18.2 M116.3,32.9c-0.9-1.2-1.1-2.8-0.6-4.6c0,0,5.9,1.5,10.4-2.3c1.6-1.5,2.3-2.4,3-3.8c0.6-1.4,0.9-2.8,0.8-4 c-0.1-1.3-0.6-2.3-1.5-3.2c-0.9-0.9-2.2-1.3-3.9-1.3c-3.2,0-6.1,1-8.7,3.1c-2.6,2.1-4.7,5.1-6.3,9.2c-0.7,1.7-1,3.3-0.9,4.8 c0,1.5,0.4,2.8,1.1,3.9c0.7,1.1,1.6,2,2.8,2.6c1.2,0.6,2.7,1,4.4,1c3.4,0,6.3-0.6,8.8-1.9c2.5-1.2,4.6-3.5,5.7-5.7l-1.2-1.3 c-0.5,0.7-1.2,1.5-1.9,2.1c-0.7,0.6-1.5,1.2-2.3,1.7c-0.9,0.5-1.7,0.9-2.7,1.1c-0.9,0.3-1.8,0.4-2.7,0.4 C118.7,34.8,117.2,34.1,116.3,32.9"></path> </g> </g> </g> <path id="XMLID_81_" fill="#8F1625" d="M199.8,33.5c-0.4-0.3-0.5-0.9-0.1-1.7l4-9.8c1-2.6,1.2-4.6,0.4-5.9c-0.8-1.3-2.2-2-4.2-2 c-1.2,0-2.4,0.3-3.6,0.8c-1.2,0.5-2.3,1.2-3.3,2.1c-0.5-1.9-2-2.9-4.5-2.9c-1.2,0-2.3,0.2-3.5,0.7c-1.2,0.5-2.2,1.2-3.2,2 c-0.4-1.8-1.9-2.7-4.7-2.7c-0.5,0-0.9,0-1.2,0.1c-0.4,0-0.7,0.1-1.1,0.2c-0.4,0.1-0.7,0.2-1.1,0.2l-1.2,2.7h0.6 c0.9,0,1.5,0.3,1.7,0.8c0.2,0.5,0.2,1.2-0.1,2c-0.2,0.5-0.6,1.3-0.9,2.2c-0.4,0.9-0.8,1.9-1.2,3c-0.4,1.1-0.9,2.1-1.3,3.1 c-0.3,0.7-0.4,0.8-0.7,1.8h0c-0.1,0.2-0.2,0.4-0.2,0.6c-0.8,1.9-1.2,3.4-1.1,4.6l0,0c0,0.6,0.1,1.1,0.3,1.5c0.6,1.3,2.1,1.9,4.4,1.9 c0.9,0,1.7-0.1,2.3-0.2c0.4-0.1,0.7-0.2,1.1-0.3l1.3-2.7H178c-1,0-1.6-0.2-1.8-0.7c-0.2-0.5-0.2-1.2,0.2-2.1c0.1-0.3,0.4-1,0.7-1.9 c0.4-0.9,0.8-1.9,1.2-3c0.4-1.1,0.9-2.2,1.3-3.3c0.5-1.1,0.8-1.9,1.1-2.6c0.1-0.3,0.2-0.6,0.3-0.8c0.1-0.2,0.2-0.5,0.3-0.7 c0.6-0.5,1.2-0.9,1.9-1.2c0.6-0.2,1.2-0.3,1.6-0.3c0.5,0.1,0.8,0.3,1,0.6c0.2,0.4,0.2,0.8,0,1.5c-0.6,1.4-1.1,2.7-1.6,3.9 c-0.5,1.1-0.9,2.2-1.3,3.2c-0.4,1.1-0.7,1.9-1,2.5c-1.2,2.7-1.4,4.8-0.8,6.1c0.6,1.3,2.1,2,4.4,2c0.9,0,1.7-0.1,2.3-0.2 c0.4-0.1,0.7-0.2,1.1-0.3l1.2-2.7h-0.6c-0.9,0-1.5-0.2-1.7-0.7c-0.2-0.5-0.2-1.2,0.1-2.1l4.5-10.9c0.1-0.3,0.2-0.6,0.3-0.8 s0.2-0.5,0.3-0.7c0.6-0.5,1.2-0.9,1.8-1.1c0.6-0.2,1.2-0.3,1.6-0.2c0.5,0.1,0.8,0.3,1,0.6c0.2,0.3,0.2,0.8-0.1,1.4l-4,9.7 c-1.1,2.6-1.2,4.6-0.4,5.9c0.8,1.3,2.2,2,4.2,2c1,0,2-0.2,3-0.6c1-0.4,2-0.9,2.9-1.5c0.9-0.6,1.7-1.4,2.4-2.2 c0.7-0.8,1.3-1.8,1.7-2.8l-1.1-1.7c-0.5,1.1-1.2,2-2.1,2.6c-0.8,0.6-1.6,1-2.3,1.1C200.8,33.9,200.2,33.8,199.8,33.5"></path> <g id="XMLID_74_"> <defs> <path id="XMLID_75_" d="M196.3,14.9c-1.2,0.5-2.3,1.2-3.3,2.1c-0.5-1.9-2-2.9-4.5-2.9c-1.2,0-2.3,0.2-3.5,0.7 c-1.2,0.5-2.2,1.2-3.2,2c-0.4-1.8-1.9-2.7-4.7-2.7c-0.5,0-0.9,0-1.2,0.1c-0.4,0-0.7,0.1-1.1,0.2c-0.4,0.1-0.7,0.2-1.1,0.2 l-1.2,2.7h0.6c0.9,0,1.5,0.3,1.7,0.8c0.2,0.5,0.2,1.2-0.1,2c-0.2,0.5-0.6,1.3-0.9,2.2c-0.4,0.9-0.8,1.9-1.2,3 c-0.4,1.1-0.9,2.1-1.3,3.1c-0.3,0.7-0.4,0.8-0.7,1.8h0c-0.1,0.2-0.2,0.4-0.2,0.6c-0.8,1.8-1.2,3.4-1.1,4.6l0,0 c0,0.6,0.1,1.1,0.3,1.5c0.6,1.3,2.1,1.9,4.4,1.9c0.9,0,1.7-0.1,2.3-0.2c0.4-0.1,0.7-0.2,1.1-0.3l1.3-2.7H178c-1,0-1.6-0.2-1.8-0.7 c-0.2-0.5-0.2-1.2,0.2-2.1c0.1-0.3,0.4-1,0.7-1.9c0.4-0.9,0.8-1.9,1.2-3c0.4-1.1,0.9-2.2,1.3-3.3c0.5-1.1,0.8-1.9,1.1-2.6 c0.1-0.3,0.2-0.6,0.3-0.8c0.1-0.2,0.2-0.5,0.3-0.7c0.6-0.5,1.2-0.9,1.9-1.2c0.6-0.2,1.2-0.3,1.6-0.3c0.5,0.1,0.8,0.3,1,0.6 c0.2,0.4,0.2,0.8,0,1.5c-0.6,1.4-1.1,2.7-1.6,3.9c-0.5,1.1-0.9,2.2-1.3,3.2c-0.4,1.1-0.7,1.9-1,2.5c-1.2,2.7-1.4,4.8-0.8,6.1 c0.6,1.3,2.1,2,4.4,2c0.9,0,1.7-0.1,2.3-0.2c0.4-0.1,0.7-0.2,1.1-0.3l1.2-2.7h-0.6c-0.9,0-1.5-0.2-1.7-0.7 c-0.2-0.5-0.2-1.2,0.1-2.1l4.5-10.9c0.1-0.3,0.2-0.6,0.3-0.8c0.1-0.2,0.2-0.5,0.3-0.7c0.6-0.5,1.2-0.9,1.8-1.1 c0.6-0.2,1.2-0.3,1.6-0.2c0.5,0.1,0.8,0.3,1,0.6c0.2,0.3,0.2,0.8-0.1,1.4l-4,9.7c-1.1,2.6-1.2,4.6-0.4,5.9c0.8,1.3,2.2,2,4.2,2 c1,0,2-0.2,3-0.6c1-0.4,2-0.9,2.9-1.5c0.9-0.6,1.7-1.4,2.4-2.2c0.7-0.9,1.3-1.8,1.7-2.8l-1.1-1.7c-0.5,1.1-1.2,2-2.1,2.6 c-0.8,0.6-1.6,1-2.3,1.1c-0.7,0.1-1.3,0-1.7-0.3c-0.4-0.3-0.5-0.9-0.1-1.7l4-9.8c1-2.6,1.2-4.6,0.4-5.9c-0.8-1.3-2.2-2-4.2-2 C198.7,14.1,197.5,14.4,196.3,14.9"></path> </defs> <clipPath id="XMLID_158_"> </clipPath> <g id="XMLID_76_" opacity="0.5" clip-path="url(#XMLID_158_)"> <g id="XMLID_77_"> <defs> <rect id="XMLID_78_" x="167.6" y="12.6" width="40" height="26.7"></rect> </defs> <clipPath id="XMLID_159_"> </clipPath> <path id="XMLID_79_" clip-path="url(#XMLID_159_)" fill="#EF4124" d="M199.3,33.5c-0.4-0.3-0.5-1.5-0.2-2.3l4-9.8 c1-2.6,1.2-4.6,0.4-5.9c-0.8-1.3-2.2-2-4.2-2c-1.2,0-2.4,0.3-3.6,0.8c-1.2,0.5-1.8,0.9-2.8,1.8c-0.5-1.9-2.5-2.5-5-2.5 c-1.2,0-2.3,0.2-3.5,0.7c-1.2,0.5-1,0.4-2,1.2c-0.4-1.8-3.2-1.9-5.9-1.9c-0.5,0-0.9,0-1.2,0.1c-0.4,0-0.7,0.1-1.1,0.2 c-0.4,0.1-0.7,0.2-1.1,0.2l-2.1,3.7h0.6c0.9,0,2.1-0.7,2.3-0.2c0.2,0.5,0.5,1.1,0.2,1.9c-0.2,0.5-0.6,1.3-0.9,2.2 c-0.4,0.9-0.8,1.9-1.2,3c-0.4,1.1-0.9,2.1-1.3,3.1c-0.3,0.7-0.4,0.8-0.7,1.8h0c-0.1,0.2-0.2,0.4-0.2,0.6 c-0.8,1.9-1.2,3.4-1.1,4.6l0,0c0,0.6,0.1,1.1,0.3,1.5c0.6,1.3,2,1.9,4.4,1.9c0.9,0,1.7-0.1,2.3-0.2c1.3-0.2,2.4-0.8,2.7-0.8 l0.6-1.8l-1,0.3c-1.5,0-2.2-0.3-2.4-0.8c-0.2-0.5-0.1-1.7,0.2-2.6c0.1-0.3,0.4-1,0.7-1.9c0.4-0.9,0.8-1.9,1.2-3 c0.4-1.1,0.9-2.2,1.3-3.3c0.5-1.1,0.8-1.9,1.1-2.6c0.1-0.3,0.2-0.6,0.3-0.8c0.1-0.2,0.2-0.5,0.3-0.7c0.6-0.5,1.2-0.9,1.9-1.2 c0.6-0.2,1.2-0.3,1.6-0.3c1.1,0.2,1.6,1,1.7,1.3c0.1,0.5-0.5,0.1-0.7,0.7c-0.6,1.4-1.1,2.7-1.6,3.9c-0.5,1.1-0.9,2.2-1.3,3.2 c-0.4,1.1-0.7,1.9-1,2.5c-1.2,2.7-1.4,4.8-0.8,6.1c0.6,1.3,2.1,2,4.4,2c0.9,0,1.7-0.1,2.3-0.2c1.2-0.2,2.4-0.6,2.7-0.7l1-1.8 l-2,0.1c-1,0-1.6-0.4-1.9-0.9c-0.2-0.5-0.2-1.6,0.2-2.5l4.5-10.9c0.1-0.3,0.2-0.6,0.3-0.8c0.1-0.2,0.2-0.5,0.3-0.7 c0.6-0.5,1.2-0.8,1.8-1.1c0.6-0.2,1.2-0.3,1.6-0.2c0.5,0.1,1.1,0.3,1.6,1.2c0.2,0.3-0.5,0.2-0.7,0.8l-4,9.7 c-1.1,2.6-1.2,4.6-0.4,5.9c0.8,1.3,2.2,2,4.2,2c1,0,2-0.2,3-0.6c1-0.4,2-0.9,2.9-1.5c0.9-0.6,1.7-1.4,2.4-2.2 c0.7-0.9,1.5-2.2,2-3.1l-1.2-1.6c-0.5,1.1-1.3,2.8-2.1,3.4c-0.8,0.6-1.6,1-2.3,1.1C200.2,33.9,199.7,33.8,199.3,33.5"></path> </g> </g> </g> <path id="XMLID_73_" fill="#8F1625" d="M161.9,32.6c0.5-1.3,1.4-3.3,1.9-4.6c0.5-1.1,0.9-2.2,1.3-3.2c0.4-1.1,0.8-1.9,1-2.5 c1.1-2.7,1.4-4.8,0.8-6.1c-0.6-1.3-2.1-2-4.4-2c-0.4,0-0.8,0-1.2,0.1c-0.4,0-0.8,0.1-1.1,0.2c-0.4,0.1-0.7,0.2-1.1,0.2l-1.3,2.7h0.6 c1,0,1.6,0.3,1.8,0.8c0.2,0.5,0.2,1.2-0.1,2c-0.2,0.5-0.5,1.2-0.9,2.2c-0.4,1-0.8,2.1-1.3,3.2c-0.5,1.1-0.9,2.2-1.3,3.2 c-0.4,1-0.8,1.8-1,2.3c-1.1,2.6-1.2,4.6-0.4,5.9c0.8,1.3,2.2,2,4.2,2c1,0,2-0.2,3-0.6c1-0.4,2-0.9,2.9-1.5c0.7-0.5,1.6-1.3,2.1-1.8 l0,0c0.2-0.2,0.3-0.3,0.5-0.5l-0.4-2c-0.9,0.9-1.8,1.5-2.8,1.8c-0.6,0.2-1.1,0.3-1.6,0.3c-0.4,0-0.8-0.1-1.1-0.3 C161.6,34,161.6,33.4,161.9,32.6"></path> <g id="XMLID_65_"> <defs> <path id="XMLID_66_" d="M161.4,14.3c-0.4,0-0.8,0.1-1.1,0.2c-0.4,0.1-0.7,0.2-1.1,0.2l-1.3,2.7h0.6c1,0,1.6,0.3,1.8,0.8 c0.2,0.5,0.2,1.2-0.1,2c-0.2,0.5-0.5,1.2-0.9,2.2c-0.4,1-0.8,2.1-1.3,3.2c-0.5,1.1-0.9,2.2-1.3,3.2c-0.4,1-0.8,1.8-1,2.3 c-1.1,2.6-1.2,4.6-0.4,5.9c0.8,1.3,2.2,2,4.2,2c1,0,2-0.2,3-0.6c1-0.4,2-0.9,2.9-1.5c0.7-0.5,1.6-1.3,2.1-1.8l0,0 c0.2-0.2,0.3-0.3,0.5-0.5l-0.4-2c-0.9,0.9-1.8,1.5-2.8,1.8c-0.6,0.2-1.1,0.3-1.6,0.3c-0.4,0-0.8-0.1-1.1-0.3 c-0.4-0.3-0.5-0.9-0.1-1.7c0.5-1.3,1.4-3.3,1.9-4.6c0.5-1.1,0.9-2.2,1.3-3.2c0.4-1.1,0.8-1.9,1-2.5c1.1-2.7,1.4-4.8,0.8-6.1 c-0.6-1.3-2.1-2-4.4-2C162.2,14.2,161.8,14.2,161.4,14.3"></path> </defs> <clipPath id="XMLID_160_"> </clipPath> <g id="XMLID_67_" opacity="0.5" clip-path="url(#XMLID_160_)"> <g id="XMLID_68_"> <defs> <rect id="XMLID_69_" x="149.5" y="10.8" width="25.5" height="31.4"></rect> </defs> <clipPath id="XMLID_161_"> </clipPath> <path id="XMLID_70_" clip-path="url(#XMLID_161_)" fill="#EF4124" d="M161.3,32c0.5-1.3,1.4-3.3,1.9-4.6c0.5-1.1,0.9-2.2,1.3-3.2 c0.4-1.1,0.8-1.9,1-2.5c1.1-2.7,1.4-4.8,0.8-6.1c-0.6-1.3-2.1-2-4.4-2c-0.4,0-0.8,0-1.2,0.1c-0.4,0-0.8,0.1-1.1,0.2 c-0.4,0.1-0.7,0.2-1.1,0.2l-1.3,2.7l0.3,0.8c1,0,1.4-0.2,1.6,0.3c0.2,0.5,0.7,0.9,0.3,1.7c-0.2,0.5-0.5,1.2-0.9,2.2 c-0.4,1-0.8,2.1-1.3,3.2c-0.5,1.1-0.9,2.2-1.3,3.2c-0.4,1-0.8,1.8-1,2.3c-1.1,2.6-1.2,4.6-0.4,5.9c0.8,1.3,2.2,2,4.2,2 c1,0,2-0.2,3-0.6c1-0.4,2-0.9,2.9-1.5c0.7-0.5,1.6-1.3,2.1-1.8l0,0c0.2-0.2,1.4-1.3,1.5-1.5l-0.9-1.2c-0.9,0.9-2.3,2.2-3.3,2.5 c-0.6,0.2-0.6,0.4-1.1,0.4c-0.4,0-1.1,0-1.6-0.4C161.1,33.9,161,32.8,161.3,32"></path> </g> </g> </g> <path id="XMLID_61_" fill="#8F1625" d="M29.2,9.5c-0.7,2-1.8,3.8-3.3,5.2c-1.5,1.5-3.1,2.2-5,2.2c-1.4,0.1-2.1,0.1-2.9-0.1l6.1-14 c0.3,0,0.5-0.1,0.8-0.1c0.3,0,0.5,0,0.8,0c0.6,0,1.2,0.1,1.8,0.4c0.6,0.3,1,0.7,1.4,1.3c0.4,0.6,0.6,1.3,0.7,2.1 C29.7,7.4,29.5,8.4,29.2,9.5 M16.5,20.6c0.8-0.1,9.1-2.2,9.4,3.1C25.9,37.4,11,35,10.3,34.7L16.5,20.6z M37.4,5.9 c-0.3-1.2-0.8-2.3-1.7-3.2c-0.9-0.9-2-1.6-3.5-2C30.7,0.2,29,0,27.1,0c-5.9,0-13.9,1.1-14.2,1.2l-1.3,2.7h0.6c1,0,1.6,0.3,1.8,0.8 c0.2,0.5,0.2,1.2-0.1,2c-0.2,0.5-0.5,1.2-0.9,2.2c0,0,0,0,0,0L10.7,14L0,38.6h8l0.3-0.8c11.9,3.3,20.4-0.5,23.9-8.6 c0.5-1.3,0.8-2.6,0.8-3.8c0-1.2-0.2-2.3-0.7-3.3c-0.5-1-1.1-1.8-2-2.5c-0.8-0.7-1.8-1.1-3-1.3c0.9-0.3,1.8-0.7,2.8-1.3 c1-0.6,2-1.2,2.9-1.9c0.9-0.7,1.7-1.5,2.4-2.4s1.2-1.7,1.5-2.7C37.5,8.6,37.6,7.1,37.4,5.9"></path> <g id="XMLID_47_"> <defs> <path id="XMLID_48_" d="M10.3,34.7l6.2-14.1c0.8-0.1,9.1-2.2,9.4,3.1C25.9,33.5,18.3,35,13.7,35C11.9,35,10.5,34.8,10.3,34.7 M18,16.9l6.1-14c0.3,0,0.5-0.1,0.8-0.1c0.3,0,0.5,0,0.8,0c0.6,0,1.2,0.1,1.8,0.4c0.6,0.3,1,0.7,1.4,1.3c0.4,0.6,0.6,1.3,0.7,2.1 c0.1,0.9-0.1,1.8-0.4,3c-0.7,2-1.8,3.8-3.3,5.2c-1.5,1.5-3.1,2.2-5,2.2c-0.5,0-0.9,0-1.3,0C19,17,18.5,17,18,16.9 M12.9,1.2 l-1.3,2.7h0.6c1,0,1.6,0.3,1.8,0.8c0.2,0.5,0.2,1.2-0.1,2c-0.2,0.5-0.5,1.2-0.9,2.2c0,0,0,0,0,0L10.7,14L0,38.6h8l0.3-0.8 c11.9,3.3,20.4-0.5,23.9-8.6c0.5-1.3,0.8-2.6,0.8-3.8c0-1.2-0.2-2.3-0.7-3.3c-0.5-1-1.1-1.8-2-2.5c-0.9-0.7-1.8-1.1-3-1.3 c0.9-0.3,1.8-0.7,2.8-1.3c1-0.6,2-1.2,2.9-1.9s1.7-1.5,2.4-2.4c0.7-0.9,1.2-1.7,1.5-2.7c0.5-1.6,0.6-3,0.4-4.2 c-0.3-1.2-0.8-2.3-1.7-3.2c-0.9-0.9-2-1.6-3.5-2C30.7,0.2,29,0,27.1,0C21.2,0,13.2,1.1,12.9,1.2"></path> </defs> <clipPath id="XMLID_162_"> </clipPath> <g id="XMLID_52_" opacity="0.5" clip-path="url(#XMLID_162_)"> <g id="XMLID_53_"> <defs> <rect id="XMLID_54_" x="-3.9" y="-7.8" width="44.9" height="55.7"></rect> </defs> <clipPath id="XMLID_163_"> </clipPath> <path id="XMLID_55_" clip-path="url(#XMLID_163_)" fill="#EF4124" d="M28.4,4.2c0,0,0,0.7,0.1,1.6c0.1,0.9-0.1,1.8-0.4,3 c-0.7,2-1.9,4.4-3.4,5.9c-1.5,1.5-3.1,2.4-5,2.4c-1.4,0.1-2.1-0.2-2.8-0.5l6-14.1c0.2-0.1,0.9-0.2,1.5-0.1 C28,2.6,28.4,4.2,28.4,4.2 M15.4,19.8c0.8-0.1,10.1-1.9,10.4,3.4C26.1,38.2,9.6,34.7,9,34.4L15.4,19.8z M29.1,19 c-0.2-0.2-2-0.6-3.2-0.9c0.9-0.3,1.8-0.7,2.8-1.3c1-0.6,2-1.2,2.9-1.9c0.9-0.7,2.1-2,2.8-2.8c0.7-0.9,1.2-1.7,1.5-2.7 c0.5-1.6,0.6-3,0.4-4.2c-0.3-1.2-0.8-2.3-1.7-3.2c-0.9-0.9-2-1.6-3.5-2c-1.5-0.5-3.1-0.7-5-0.7c-2,0-4.6,0.1-7,0.3c0,0,0,0,0,0 c-0.1,0-0.3,0-0.7,0.1c-0.6,0.1-1.2,0.1-1.7,0.2c-0.2,0-0.4,0-0.6,0.1c-0.2,0-0.4,0-0.7,0.1C14.1,0,13,0.1,12.9,0.2 c-0.4,0.1-0.7,0.2-1.1,0.2L8.1,5.5h0.6c1,0,3.4-2,3.6-1.4c0.2,0.5,0.8,1,0.5,1.8c-0.2,0.5-0.5,1.2-0.9,2.2c0,0,0,0,0,0l-2.3,5.1 L-1.1,37.8h8L7.2,37c11.9,3.3,20.4-0.5,23.9-8.6c0.5-1.3,0.8-2.6,0.8-3.8C31.6,20.4,29.1,19,29.1,19"></path> </g> </g> </g> <path id="XMLID_46_" fill="#8F1625" d="M84.9,19.8c-0.3-2.4-1.9-4.3-3.6-4.5c-0.2,0-0.5-0.1-0.7-0.1c-0.3,0-0.7,0-1.1,0.1 c-0.4,0.1-0.7,0.2-1.1,0.4c-0.8,0.4-1.6,0.9-2.4,1.5c-0.2,0.2-0.5,0.5-0.7,0.7l-0.1-0.4c-0.2-1.1-0.7-1.9-1.5-2.5 c-0.8-0.6-1.8-0.8-3.1-0.8c-1,0-2,0.2-3,0.6c-1,0.4-2,0.9-2.9,1.5c-0.9,0.6-1.7,1.4-2.4,2.3c-0.7,0.9-1.3,1.8-1.7,2.8l1.1,1.8 c0.5-1.1,1.2-2,2.1-2.7c0.8-0.6,1.6-1,2.3-1.1c0.7-0.1,1.3,0,1.7,0.3c0.4,0.3,0.5,0.9,0.1,1.7l-7.1,17.5h6.9l6.1-15.2 c0.4-0.7,1.2-2.4,3.1-2.3c0.3,0,0.6,0.1,0.9,0.4c0.3,0.3,0.5,1.1,0.6,1.4c0.5,1.2,1.6,2.1,3.1,2.1c1.8,0,3.3-1.4,3.4-3.1 C85,21.4,85,20.6,84.9,19.8"></path> <g id="XMLID_38_"> <defs> <path id="XMLID_39_" d="M67.6,14.7c-1,0.4-2,0.9-2.9,1.5c-0.9,0.6-1.7,1.4-2.4,2.3c-0.7,0.9-1.3,1.8-1.7,2.8l1.1,1.8 c0.5-1.1,1.2-2,2.1-2.7c0.8-0.6,1.6-1,2.3-1.1c0.7-0.1,1.3,0,1.7,0.3c0.4,0.3,0.5,0.9,0.1,1.7l-7.1,17.5h6.9l6.1-15.2 c0.4-0.7,1.2-2.4,3.1-2.3c0.3,0,0.6,0.1,0.9,0.4c0.3,0.3,0.5,1.1,0.6,1.4c0.5,1.2,1.7,2.1,3.1,2.1c1.8,0,3.3-1.4,3.4-3.1 c0.1-0.6,0.1-1.4,0-2.2c-0.3-2.4-1.9-4.3-3.6-4.5c-0.2,0-0.5-0.1-0.7-0.1c-0.3,0-0.7,0-1.1,0.1c-0.4,0.1-0.7,0.2-1.1,0.4 c-0.8,0.4-1.6,0.9-2.4,1.5c-0.2,0.2-0.5,0.5-0.7,0.7l-0.1-0.4c-0.2-1.1-0.7-1.9-1.5-2.5c-0.8-0.5-1.8-0.8-3.1-0.8 C69.6,14.1,68.6,14.3,67.6,14.7"></path> </defs> <clipPath id="XMLID_164_"> </clipPath> <g id="XMLID_40_" opacity="0.5" clip-path="url(#XMLID_164_)"> <g id="XMLID_41_"> <defs> <rect id="XMLID_42_" x="56.4" y="10.6" width="31.3" height="29.5"></rect> </defs> <clipPath id="XMLID_165_"> </clipPath> <path id="XMLID_43_" clip-path="url(#XMLID_165_)" fill="#EF4124" d="M84.5,19.1c-0.3-2.4-1.9-4.3-3.6-4.5 c-0.2,0-0.5-0.1-0.7-0.1c-0.3,0-0.7,0-1.1,0.1c-0.4,0.1-0.7,0.2-1.1,0.4c-0.8,0.4-1.6,0.9-2.4,1.5c-0.2,0.2,0,0.4-0.2,0.5 l-0.2-0.5c-0.2-1.1-1.1-1.7-1.8-2.3c-0.8-0.6-1.8-0.8-3.1-0.8c-1,0-2,0.2-3,0.6c-1,0.4-2,0.9-2.9,1.5c-0.9,0.6-1.7,1.4-2.4,2.3 c-0.7,0.9-1.3,1.8-1.7,2.8l1.1,1.8c0.5-1.1,1.2-2,2.1-2.7c0.8-0.6,1.6-1,2.3-1.1c0.7-0.1,1.3,0,1.7,0.3c0.4,0.3,1,1.2,0.7,2 l-7.6,17.3h6.9l6.1-15.2c0.4-0.7,1.2-2.4,3.1-2.3c0.3,0,0.6,0.1,0.9,0.4c0.3,0.3,0.6,1,0.7,1.3c0.5,1.2,1.5,2.2,3,2.2 c1.8,0,3.3-1.4,3.4-3.1C84.6,20.7,84.6,19.9,84.5,19.1"></path> </g> </g> </g> <path id="XMLID_37_" fill="#8F1625" d="M156.3,19.8c-0.3-2.4-1.9-4.3-3.6-4.5c-0.2,0-0.5-0.1-0.7-0.1c-0.3,0-0.7,0-1.1,0.1 c-0.4,0.1-0.7,0.2-1.1,0.4c-0.8,0.4-1.6,0.9-2.4,1.5c-0.2,0.2-0.5,0.5-0.7,0.7l-0.1-0.4c-0.2-1.1-0.7-1.9-1.5-2.5 c-0.8-0.6-1.8-0.8-3.1-0.8c-1,0-2,0.2-3,0.6c-1,0.4-2,0.9-2.9,1.5c-0.9,0.6-1.7,1.4-2.4,2.3c-0.7,0.9-1.3,1.8-1.7,2.8l1.1,1.8 c0.5-1.1,1.2-2,2.1-2.7c0.8-0.6,1.6-1,2.3-1.1c0.7-0.1,1.3,0,1.7,0.3c0.4,0.3,0.5,0.9,0.1,1.7l-7.1,17.5h6.9l6.1-15.2 c0.4-0.7,1.2-2.4,3.1-2.3c0.3,0,0.6,0.1,0.9,0.4c0.3,0.3,0.5,1.1,0.6,1.4c0.5,1.2,1.6,2.1,3.1,2.1c1.8,0,3.3-1.4,3.4-3.1 C156.4,21.4,156.4,20.6,156.3,19.8"></path> <g id="XMLID_29_"> <defs> <path id="XMLID_30_" d="M138.9,14.7c-1,0.4-2,0.9-2.9,1.5c-0.9,0.6-1.7,1.4-2.4,2.3c-0.7,0.9-1.3,1.8-1.7,2.8l1.1,1.8 c0.5-1.1,1.2-2,2.1-2.7c0.8-0.6,1.6-1,2.3-1.1c0.7-0.1,1.3,0,1.7,0.3c0.4,0.3,0.5,0.9,0.1,1.7l-7.1,17.5h6.9l6.1-15.2 c0.4-0.7,1.2-2.4,3.1-2.3c0.3,0,0.6,0.1,0.9,0.4c0.3,0.3,0.5,1.1,0.6,1.4c0.5,1.2,1.6,2.1,3.1,2.1c1.8,0,3.3-1.4,3.4-3.1 c0.1-0.6,0.1-1.4,0-2.2c-0.3-2.4-1.9-4.3-3.6-4.5c-0.2,0-0.5-0.1-0.7-0.1c-0.3,0-0.7,0-1.1,0.1c-0.4,0.1-0.7,0.2-1.1,0.4 c-0.8,0.4-1.6,0.9-2.4,1.5c-0.2,0.2-0.5,0.5-0.7,0.7l-0.1-0.4c-0.2-1.1-0.7-1.9-1.5-2.5c-0.8-0.5-1.8-0.8-3.1-0.8 C140.9,14.1,139.9,14.3,138.9,14.7"></path> </defs> <clipPath id="XMLID_166_"> </clipPath> <g id="XMLID_31_" opacity="0.5" clip-path="url(#XMLID_166_)"> <g id="XMLID_32_"> <defs> <rect id="XMLID_33_" x="127.5" y="10.7" width="31.3" height="29.5"></rect> </defs> <clipPath id="XMLID_167_"> </clipPath> <path id="XMLID_34_" clip-path="url(#XMLID_167_)" fill="#EF4124" d="M155.6,19.2c-0.3-2.4-1.9-4.3-3.6-4.5 c-0.2,0-0.5-0.1-0.7-0.1c-0.3,0-0.7,0-1.1,0.1c-0.4,0.1-0.7,0.2-1.1,0.4c-0.8,0.4-1.6,0.9-2.4,1.5c-0.2,0.2,0.1-0.2-0.1,0 l-0.2-0.4c-0.2-1.1-1.2-1.2-2-1.8c-0.8-0.6-1.8-0.8-3.1-0.8c-1,0-2,0.2-3,0.6c-1,0.4-2,0.9-2.9,1.5c-0.9,0.6-1.7,1.4-2.4,2.3 c-0.7,0.9-1.3,1.8-1.7,2.8l1.1,1.8c0.5-1.1,1.2-2,2.1-2.7c0.8-0.6,1.6-1,2.3-1.1c0.7-0.1,2.1,0.3,2.6,1.3c0,0.8-0.5-0.1-0.8,0.7 l-7.1,17.5h6.9l6.1-15.2c0.4-0.7,1.2-2.4,3.1-2.3c0.3,0,1.4,0.2,1.7,1.1c0.3,0.3-0.3,0.4-0.2,0.6c0.5,1.2,1.6,2.1,3.1,2.1 c1.8,0,3.3-1.4,3.4-3.1C155.7,20.8,155.7,20,155.6,19.2"></path> </g> </g> </g> <path id="XMLID_28_" fill="#8F1625" d="M163.9,11.1c0.9,0,1.8-0.3,2.4-1c0.7-0.7,1-1.5,1-2.4c0-0.9-0.3-1.8-1-2.4 c-0.7-0.7-1.5-1-2.4-1c-1,0-1.8,0.3-2.5,1c-0.7,0.7-1,1.5-1,2.4c0,0.9,0.3,1.8,1,2.4C162.1,10.8,162.9,11.1,163.9,11.1"></path> <g id="XMLID_20_"> <defs> <path id="XMLID_21_" d="M161.4,5.2c-0.7,0.7-1,1.5-1,2.4c0,0.9,0.3,1.8,1,2.4c0.7,0.7,1.5,1,2.5,1c0.9,0,1.8-0.3,2.4-1 c0.7-0.7,1-1.5,1-2.4c0-0.9-0.3-1.8-1-2.4c-0.7-0.7-1.5-1-2.4-1C162.9,4.2,162.1,4.5,161.4,5.2"></path> </defs> <clipPath id="XMLID_168_"> </clipPath> <g id="XMLID_22_" opacity="0.5" clip-path="url(#XMLID_168_)"> <g id="XMLID_23_"> <defs> <rect id="XMLID_24_" x="158.8" y="2.6" width="9" height="8.9"></rect> </defs> <clipPath id="XMLID_169_"> </clipPath> <path id="XMLID_25_" clip-path="url(#XMLID_169_)" fill="#EF4124" d="M163.3,10.5c0.9,0,1.8-0.3,2.4-1c0.7-0.7,1-1.5,1-2.4 c0-0.9-0.3-1.8-1-2.4c-0.7-0.7-1.5-1-2.4-1c-1,0-1.8,0.3-2.5,1c-0.7,0.7-1,1.5-1,2.4c0,0.9,0.3,1.8,1,2.4 C161.5,10.2,162.3,10.5,163.3,10.5"></path> </g> </g> </g> <path id="XMLID_4_" d="M179.6,51.7h0.7v-2.9h0.8l1.6,3l0.6-0.3l-1.5-2.8c0.9-0.3,1.2-1,1.2-1.8c0-1.2-0.9-1.7-1.6-1.7h-1.9V51.7z M180.3,45.8h0.9c0.7,0,1.2,0.3,1.2,1.1c0,0.9-0.4,1.3-1,1.3h-1V45.8z M173.7,51.7h3.5v-0.6h-2.7v-2.6h2.3V48h-2.3v-2.2h2.7v-0.6 h-3.5V51.7z M167.5,51.7h0.7v-3.2h2.2v3.2h0.7v-6.5h-0.7V48h-2.2v-2.7h-0.7V51.7z M163.2,51.7h0.7v-5.9h1.5v-0.6h-3.7v0.6h1.5V51.7z M156.1,51.7h3.5v-0.6h-2.7v-2.6h2.3V48h-2.3v-2.2h2.7v-0.6h-3.5V51.7z M153.7,48.4h-2v0.6h1.3v2c-0.2,0.2-0.6,0.3-0.9,0.3 c-0.7,0-1.4-0.5-1.4-2.7c0-0.8,0.1-2.8,1.3-2.8c0.6,0,0.9,0.4,1.2,0.8l0.6-0.4c-0.4-0.6-1-1-1.8-1c-1.8,0-2.1,2.1-2.1,3.4 c0,1.3,0.3,3.3,2.1,3.3c0.6,0,1.2-0.2,1.6-0.6V48.4z M146,45.7c1.3,0,1.2,1.5,1.2,2.7c0,1.1,0,2.7-1.2,2.7c-1,0-1.2-1-1.2-2.7 C144.8,47.5,144.7,45.7,146,45.7 M146,45.1c-1.9,0-2,2.3-2,3.4c0,0.8-0.1,3.4,2,3.4c2,0,2-2.5,2-3.4C148,47.6,148,45.1,146,45.1 M139.8,51.7h0.7v-5.9h1.5v-0.6h-3.7v0.6h1.5V51.7z M130.7,51.7h3.5v-0.6h-2.7v-2.6h2.3V48h-2.3v-2.2h2.7v-0.6h-3.5V51.7z M126.3,48 l-1-2.8h-0.9l-0.2,6.5h0.7l0.1-5.4h0l1.2,3.3l1.2-3.3h0l0.1,5.4h0.8l-0.2-6.5h-0.9L126.3,48z M120.5,45.7c1.3,0,1.2,1.5,1.2,2.7 c0,1.1,0,2.7-1.2,2.7c-1,0-1.2-1-1.2-2.7C119.3,47.5,119.2,45.7,120.5,45.7 M120.5,45.1c-1.9,0-2,2.3-2,3.4c0,0.8-0.1,3.4,2,3.4 c2,0,2-2.5,2-3.4C122.5,47.6,122.5,45.1,120.5,45.1 M116.1,50.4c-0.3,0.4-0.7,0.8-1.3,0.8c-1.3,0-1.4-1.9-1.4-2.7 c0-0.9,0.1-2.7,1.4-2.7c0.5,0,0.9,0.4,1.1,0.8l0.6-0.3c-0.4-0.6-0.9-1.1-1.7-1.1c-1.8,0-2.1,2.1-2.1,3.4c0,1.3,0.3,3.3,2.1,3.3 c0.8,0,1.4-0.5,1.8-1.1L116.1,50.4z"></path> </svg> 